<?xml version="1.0" encoding="iso-8859-1"?>
<!-- Generator: Adobe Illustrator 19.0.0, SVG Export Plug-In . SVG Version: 6.00 Build 0)  -->
<svg version="1.1" id="Capa_1" xmlns="http://www.w3.org/2000/svg" xmlns:xlink="http://www.w3.org/1999/xlink" x="0px" y="0px"
	 viewBox="0 0 512 512" style="enable-background:new 0 0 512 512;" xml:space="preserve">
<g>
	<g>
		<path d="M189.079,400.406h-38.014c-4.143,0-7.501,3.357-7.501,7.501c0,4.143,3.357,7.501,7.501,7.501h38.014
			c4.143,0,7.501-3.357,7.501-7.501C196.579,403.763,193.222,400.406,189.079,400.406z"/>
	</g>
</g>
<g>
	<g>
		<path d="M256.383,102.219c-0.491-3.075-2.832-5.528-5.883-6.161c-0.137-0.028-4.82-1.017-11.83-2.965
			c-0.287-11.787-2.584-23.774-6.866-35.719c-6.626-18.468-21.795-33.523-43.87-43.538C168.49,5.014,144.162,0.498,119.458,1.122
			c-43.164,1.089-98.683,19.26-113.1,66.881c-12.369,40.858-4.6,68.477,5.57,85.493c-4.574,6.061-7.293,13.597-7.293,21.758
			c0,19.957,16.236,36.193,36.193,36.193c0.753,0,1.503-0.04,2.251-0.086c2.993,16.44,11.225,31.46,23.644,42.886
			c6.961,6.404,14.94,11.392,23.534,14.835v9.212c-16.991,4.887-32.493,14.007-45.113,26.627c-0.333,0.333-0.656,0.672-0.984,1.008
			c-0.007,0.007-0.015,0.014-0.022,0.021c-0.003,0.003-0.006,0.007-0.009,0.01c-19.169,19.697-29.714,45.611-29.714,73.151v124.322
			c0,4.143,3.357,7.501,7.501,7.501h194.847c4.143,0,7.501-3.357,7.501-7.501V388.443c0-4.143-3.357-7.501-7.501-7.501
			s-7.501,3.357-7.501,7.501v107.489h-82.919V328.41l21.961,21.438c1.456,1.421,3.347,2.133,5.239,2.133
			c1.846,0,3.692-0.677,5.137-2.035l29.971-28.169c9.413,11.379,16.068,25.118,18.977,40.222c0.69,3.589,3.832,6.083,7.357,6.083
			c0.47,0,0.947-0.044,1.426-0.137c4.067-0.783,6.73-4.715,5.947-8.783c-7.486-38.876-36.204-70.021-73.941-80.867v-9.549
			c8.287-3.429,15.988-8.297,22.73-14.499c12.419-11.426,20.65-26.445,23.643-42.886c0.749,0.046,1.499,0.086,2.252,0.086
			c19.957,0,36.192-16.236,36.192-36.193c0-9.616-3.777-18.362-9.916-24.85c6.042-10.208,10.344-20.919,12.839-31.959
			c5.472-2.516,10.995-5.349,16.552-8.54C255.411,108.356,256.874,105.296,256.383,102.219z M40.829,196.446
			c-11.685,0.001-21.192-9.506-21.192-21.192c0-10.704,7.986-19.558,18.309-20.972l3.517,42.14
			C41.252,196.428,41.041,196.446,40.829,196.446z M90.589,293.892c1.353,8.912,6.769,16.501,14.288,20.831l-19.845,19.372
			l-24.488-23.017C69.384,303.426,79.579,297.601,90.589,293.892z M111.343,495.932H29.418v-116.82
			c0-21.173,7.277-41.223,20.633-57.311l29.944,28.144c2.927,2.751,7.5,2.706,10.377-0.098l20.972-20.473V495.932z M133.416,289.511
			c0,7.763-6.316,14.077-14.078,14.077s-14.077-6.315-14.077-14.077v-5.43c0-0.062,0.002-0.123,0-0.185v-10.511
			c4.479,0.804,9.052,1.227,13.675,1.227c4.9,0,9.745-0.465,14.48-1.366V289.511z M178.154,311.057l-24.51,23.038l-19.845-19.372
			c7.52-4.329,12.935-11.918,14.288-20.828C159.28,297.658,169.452,303.537,178.154,311.057z M180.834,202.665
			c-2.666,31.932-29.855,56.946-61.898,56.946s-59.233-25.014-61.899-56.947l-6.468-77.49c6.763-4.124,11.813-8.477,15.081-11.695
			c8.766,4.707,27.473,13.521,52.755,18.636c10.973,2.221,23.933,3.853,38.334,3.852c9.393,0,19.401-0.699,29.862-2.378
			L180.834,202.665z M197.043,196.447c-0.212,0-0.423-0.018-0.635-0.024l3.517-42.14c10.322,1.414,18.309,10.267,18.309,20.972
			C218.234,186.94,208.727,196.447,197.043,196.447z M210.949,141.844c-3.067-1.281-6.349-2.148-9.772-2.539l0.737-8.834
			c5.444-1.347,10.987-2.98,16.604-4.928C216.546,131.098,214.015,136.541,210.949,141.844z M226.909,106.183
			c-0.215,0.083-0.426,0.175-0.632,0.277c-10.519,4.597-21.216,8.113-32.07,10.542c-0.644,0.058-1.266,0.197-1.857,0.41
			c-22.842,4.843-46.371,4.894-70.388,0.116c-32.363-6.441-53.54-19.727-53.741-19.855c-3.278-2.095-7.615-1.335-9.987,1.749
			c-0.098,0.127-9.975,12.77-29.065,19.356c-3.915,1.351-5.995,5.62-4.644,9.537c1.351,3.915,5.615,5.995,9.537,4.644
			c0.694-0.239,1.366-0.493,2.041-0.745l0.592,7.09c-4.735,0.541-9.198,1.994-13.201,4.187
			c-10.233-18.837-11.224-43.242-2.777-71.142c12.097-39.962,60.956-55.268,99.12-56.232c40.072-1.019,85.865,12.917,97.847,46.317
			c3.112,8.684,5.004,17.354,5.701,25.892c-12.187-4.237-26.092-10.218-36.314-17.948c-3.306-2.499-8.01-1.845-10.507,1.459
			c-2.498,3.304-1.845,8.009,1.459,10.507c14.666,11.09,35.156,18.762,50.084,23.313
			C227.708,105.837,227.308,106.007,226.909,106.183z"/>
	</g>
</g>
<g>
	<g>
		<path d="M81.899,161.741c-4.143,0-7.501,3.357-7.501,7.501v1.536c0,4.143,3.357,7.501,7.501,7.501s7.501-3.357,7.501-7.501v-1.536
			C89.399,165.098,86.041,161.741,81.899,161.741z"/>
	</g>
</g>
<g>
	<g>
		<path d="M155.79,161.741c-4.143,0-7.501,3.357-7.501,7.501v1.536c0,4.143,3.357,7.501,7.501,7.501
			c4.143,0,7.501-3.357,7.501-7.501v-1.536C163.291,165.098,159.933,161.741,155.79,161.741z"/>
	</g>
</g>
<g>
	<g>
		<path d="M143.274,211.284c-2.516-3.29-7.223-3.916-10.513-1.402c-3.109,2.378-7.73,3.741-12.675,3.741
			c-4.945,0-9.565-1.363-12.675-3.741c-3.292-2.518-7.999-1.888-10.515,1.402c-2.516,3.29-1.888,7.998,1.402,10.515
			c5.756,4.401,13.494,6.826,21.787,6.826s16.03-2.424,21.787-6.826C145.162,219.282,145.79,214.575,143.274,211.284z"/>
	</g>
</g>
<g>
	<g>
		<path d="M265.64,396.28c-4.143,0-7.501,3.357-7.501,7.501V421.7c0,4.143,3.357,7.501,7.501,7.501c4.143,0,7.501-3.357,7.501-7.501
			v-17.919C273.141,399.639,269.784,396.28,265.64,396.28z"/>
	</g>
</g>
<g>
	<g>
		<path d="M293.223,396.28c-4.143,0-7.501,3.357-7.501,7.501V421.7c0,4.143,3.357,7.501,7.501,7.501s7.501-3.357,7.501-7.501
			v-17.919C300.723,399.639,297.366,396.28,293.223,396.28z"/>
	</g>
</g>
<g>
	<g>
		<path d="M320.805,396.28c-4.143,0-7.501,3.357-7.501,7.501V421.7c0,4.143,3.357,7.501,7.501,7.501s7.501-3.357,7.501-7.501
			v-17.919C328.306,399.639,324.948,396.28,320.805,396.28z"/>
	</g>
</g>
<g>
	<g>
		<path d="M348.388,396.28c-4.143,0-7.501,3.357-7.501,7.501V421.7c0,4.143,3.357,7.501,7.501,7.501
			c4.143,0,7.501-3.357,7.501-7.501v-17.919C355.889,399.639,352.531,396.28,348.388,396.28z"/>
	</g>
</g>
<g>
	<g>
		<path d="M504.499,120.953h-195.59c-4.143,0-7.501,3.357-7.501,7.501c0,4.143,3.357,7.501,7.501,7.501h14.328v38.037h-54.503
			v-38.037h12.318c4.143,0,7.501-3.357,7.501-7.501c0-4.143-3.357-7.501-7.501-7.501h-19.819c-4.143,0-7.501,3.357-7.501,7.501
			v53.039c0,4.143,3.357,7.501,7.501,7.501h243.265c4.143,0,7.501-3.357,7.501-7.501v-53.039
			C512,124.31,508.642,120.953,504.499,120.953z M496.998,173.991h-158.76v-38.037h158.76V173.991z"/>
	</g>
</g>
<g>
	<g>
		<path d="M504.499,212.06H261.234c-4.143,0-7.501,3.357-7.501,7.501v53.04c0,4.143,3.357,7.501,7.501,7.501h243.265
			c4.143,0,7.501-3.357,7.501-7.501v-53.04C512,215.419,508.642,212.06,504.499,212.06z M435.769,265.1H268.735v-38.038h0h167.034
			V265.1z M496.998,265.1h-46.229v-38.038h46.229V265.1z"/>
	</g>
</g>
<g>
	<g>
		<path d="M504.499,303.17H261.234c-4.143,0-7.501,3.357-7.501,7.501v53.039c0,4.143,3.357,7.501,7.501,7.501h168.331
			c4.143,0,7.501-3.357,7.501-7.501c0-4.143-3.357-7.501-7.501-7.501h-18.513v-38.037h85.945v38.037h-39.576
			c-4.143,0-7.501,3.357-7.501,7.501c0,4.143,3.357,7.501,7.501,7.501h47.077c4.143,0,7.501-3.357,7.501-7.501v-53.039
			C512,306.528,508.642,303.17,504.499,303.17z M396.053,356.209H268.735v-38.037h127.318V356.209z"/>
	</g>
</g>
<g>
</g>
<g>
</g>
<g>
</g>
<g>
</g>
<g>
</g>
<g>
</g>
<g>
</g>
<g>
</g>
<g>
</g>
<g>
</g>
<g>
</g>
<g>
</g>
<g>
</g>
<g>
</g>
<g>
</g>
</svg>
