<svg id="Capa_1" enable-background="new 0 0 512 512" height="512" viewBox="0 0 512 512" width="512" xmlns="http://www.w3.org/2000/svg"><g><path d="m474.5 404.148h-181c-4.143 0-7.5 3.357-7.5 7.5s3.357 7.5 7.5 7.5h181c4.143 0 7.5-3.357 7.5-7.5s-3.357-7.5-7.5-7.5zm0 45h-181c-4.143 0-7.5 3.357-7.5 7.5s3.357 7.5 7.5 7.5h181c4.143 0 7.5-3.357 7.5-7.5s-3.357-7.5-7.5-7.5zm-176-170.648h-25c-12.406 0-22.5-10.094-22.5-22.5 0-4.143-3.358-7.5-7.5-7.5s-7.5 3.357-7.5 7.5c0 20.678 16.822 37.5 37.5 37.5h25c20.678 0 37.5-16.822 37.5-37.5s-16.822-37.5-37.5-37.5h-10c-4.143 0-7.5 3.357-7.5 7.5s3.357 7.5 7.5 7.5h10c12.406 0 22.5 10.094 22.5 22.5s-10.094 22.5-22.5 22.5zm176 80.648h-151c-4.143 0-7.5 3.357-7.5 7.5s3.357 7.5 7.5 7.5h151c4.143 0 7.5-3.357 7.5-7.5s-3.357-7.5-7.5-7.5zm-236-140.648h-25c-20.678 0-37.5 16.822-37.5 37.5s16.822 37.5 37.5 37.5h10c4.142 0 7.5-3.357 7.5-7.5s-3.358-7.5-7.5-7.5h-10c-12.407 0-22.5-10.094-22.5-22.5s10.093-22.5 22.5-22.5h25c12.407 0 22.5 10.094 22.5 22.5 0 4.143 3.357 7.5 7.5 7.5s7.5-3.357 7.5-7.5c0-20.678-16.822-37.5-37.5-37.5zm-12.5-177c0-6.341-5.159-11.5-11.5-11.5h-173c-6.341 0-11.5 5.159-11.5 11.5v35.297c0 6.341 5.159 11.5 11.5 11.5h173c6.341 0 11.5-5.159 11.5-11.5zm-15 31.797h-166v-28.297h166zm15 55.351c0-4.143-3.358-7.5-7.5-7.5h-181c-4.142 0-7.5 3.357-7.5 7.5s3.358 7.5 7.5 7.5h181c4.142 0 7.5-3.357 7.5-7.5zm-60 45c0-4.143-3.358-7.5-7.5-7.5h-121c-4.142 0-7.5 3.357-7.5 7.5s3.358 7.5 7.5 7.5h121c4.142 0 7.5-3.357 7.5-7.5zm318.5 64.352h-122.515c-8.59-50.735-52.842-89.5-105.985-89.5-59.276 0-107.5 48.225-107.5 107.5 0 1.003.032 2.001.059 3h-121.059c-6.893 0-12.5-5.607-12.5-12.5v-219c0-6.893 5.607-12.5 12.5-12.5h201c6.893 0 12.5 5.607 12.5 12.5v93.78c0 4.143 3.358 7.5 7.5 7.5s7.5-3.357 7.5-7.5v-93.78c0-15.163-12.336-27.5-27.5-27.5h-201c-15.164 0-27.5 12.337-27.5 27.5v219c0 15.163 12.336 27.5 27.5 27.5h122.503c2.787 16.623 9.435 32.295 19.651 46.047 2.47 3.325 7.169 4.018 10.493 1.548 3.325-2.47 4.019-7.168 1.548-10.493-11.903-16.024-18.195-35.078-18.195-55.102 0-51.005 41.495-92.5 92.5-92.5s92.5 41.495 92.5 92.5-41.495 92.5-92.5 92.5c-18.537 0-36.419-5.461-51.713-15.793-3.432-2.318-8.094-1.416-10.413 2.017s-1.416 8.095 2.017 10.413c17.782 12.013 38.568 18.363 60.109 18.363v121c0 15.163 12.337 27.5 27.5 27.5h201c15.163 0 27.5-12.337 27.5-27.5v-219c0-15.163-12.337-27.5-27.5-27.5zm-124.435 45h106.935v28.3h-118.848c5.246-8.71 9.296-18.219 11.913-28.3zm136.935 201.5c0 6.893-5.607 12.5-12.5 12.5h-201c-6.893 0-12.5-5.607-12.5-12.5v-122.052c26.33-3.692 49.635-16.951 66.264-36.148h133.236c6.341 0 11.5-5.159 11.5-11.5v-35.3c0-6.341-5.159-11.5-11.5-11.5h-107.674c.44-3.941.674-7.943.674-12 0-1.004-.016-2.003-.044-3h121.044c6.893 0 12.5 5.607 12.5 12.5zm-459.5-273.352c-4.142 0-7.5 3.357-7.5 7.5s3.358 7.5 7.5 7.5h91c4.142 0 7.5-3.357 7.5-7.5s-3.358-7.5-7.5-7.5z"/></g></svg>
