<svg id="Layer_5" enable-background="new 0 0 64 64" height="512" viewBox="0 0 64 64" width="512" xmlns="http://www.w3.org/2000/svg"><path d="m24 32c-3.86 0-7 3.14-7 7s3.14 7 7 7 7-3.14 7-7-3.14-7-7-7zm0 12c-2.757 0-5-2.243-5-5s2.243-5 5-5 5 2.243 5 5-2.243 5-5 5z"/><path d="m24 36c-1.654 0-3 1.346-3 3s1.346 3 3 3 3-1.346 3-3-1.346-3-3-3zm0 4c-.551 0-1-.449-1-1s.449-1 1-1 1 .449 1 1-.449 1-1 1z"/><path d="m37 35.219-2.416-.603 1.281-2.134-5.347-5.347-2.134 1.281-.603-2.416h-7.562l-.603 2.416-2.134-1.281-5.347 5.347 1.281 2.134-2.416.603v7.562l2.416.603-1.281 2.134 4.6 4.601 2.821-.779.663 2.66h7.562l.664-2.66 2.821.779 4.6-4.601-1.281-2.134 2.415-.603zm-2 6-2.446.611-.503 1.22 1.296 2.16-2.672 2.672-2.772-.765-1.074.438-.61 2.445h-4.438l-.611-2.446-1.074-.438-2.772.765-2.672-2.672 1.296-2.16-.5-1.219-2.448-.611v-4.438l2.446-.611.502-1.222-1.296-2.158 3.138-3.138 2.158 1.296 1.222-.502.611-2.446h4.438l.611 2.446 1.222.502 2.158-1.296 3.138 3.138-1.296 2.158.502 1.222 2.446.611z"/><path d="m63 47v-35.414l-10.586-10.586h-23.414v17.627c-1.606-.395-3.274-.627-5-.627-11.58 0-21 9.42-21 21 0 5.874 2.431 11.185 6.331 15h-4.331v2h6.721c1.062.769 2.196 1.438 3.393 2h-14.114v2h23 30v3.081l7.601-6.081-7.601-6.081v3.081h-15.337c2.073-2.012 3.68-4.39 4.757-7zm-6-34v4h-22v-10h16v6zm-4-2v-6.586l6.586 6.586zm-22-8h20v2h-18v14h26v-6h2v32h-16.866c.569-1.917.866-3.932.866-6 0-9.122-5.857-16.883-14-19.775zm.983 51c5.359-2.864 9.017-8.511 9.017-15 0-9.374-7.626-17-17-17s-17 7.626-17 17 7.626 17 17 17h32v-.919l2.399 1.919-2.399 1.919v-.919h-32c-10.477 0-19-8.523-19-19s8.523-19 19-19 19 8.523 19 19c0 5.918-2.69 11.364-7.385 15zm-7.983 0c-8.271 0-15-6.729-15-15s6.729-15 15-15 15 6.729 15 15-6.729 15-15 15z"/><path d="m47 21h12v2h-12z"/><path d="m47 25h12v2h-12z"/><path d="m47 29h12v2h-12z"/><path d="m47 33h12v2h-12z"/><path d="m57 37h2v2h-2z"/><path d="m47 37h8v2h-8z"/><path d="m47 41h12v2h-12z"/><path d="m1 54h2v2h-2z"/></svg>