<svg id="Capa_1" enable-background="new 0 0 512 512" height="512" viewBox="0 0 512 512" width="512" xmlns="http://www.w3.org/2000/svg"><g><g><path d="m437.83 0h-363.66c-4.143 0-7.5 3.358-7.5 7.5v356.26c0 4.142 3.357 7.5 7.5 7.5s7.5-3.358 7.5-7.5v-348.76h348.66v47.15c0 4.142 3.357 7.5 7.5 7.5s7.5-3.358 7.5-7.5v-54.65c0-4.142-3.357-7.5-7.5-7.5z"/><path d="m437.83 89.65c-4.143 0-7.5 3.358-7.5 7.5v399.85h-348.66v-98.24c0-4.142-3.357-7.5-7.5-7.5s-7.5 3.358-7.5 7.5v105.74c0 4.142 3.357 7.5 7.5 7.5h363.66c4.143 0 7.5-3.358 7.5-7.5v-407.35c0-4.142-3.357-7.5-7.5-7.5z"/><path d="m98.996 155.994c0 31.986 26.022 58.008 58.008 58.008s58.008-26.022 58.008-58.008-26.022-58.008-58.008-58.008-58.008 26.022-58.008 58.008zm58.008 43.008c-23.715 0-43.008-19.293-43.008-43.008 0-21.156 15.358-38.78 35.508-42.34v42.34c0 4.142 3.357 7.5 7.5 7.5h42.34c-3.561 20.15-21.184 35.508-42.34 35.508zm42.34-50.508h-34.84v-34.84c17.712 3.13 31.71 17.128 34.84 34.84z"/><path d="m110.536 432.35c-4.143 0-7.5 3.358-7.5 7.5v32.325c0 4.142 3.357 7.5 7.5 7.5h48.488c4.143 0 7.5-3.358 7.5-7.5v-32.325c0-4.142-3.357-7.5-7.5-7.5zm40.988 32.325h-33.488v-17.325h33.488z"/><path d="m191.35 479.675h48.487c4.143 0 7.5-3.358 7.5-7.5v-80.813c0-4.142-3.357-7.5-7.5-7.5h-48.487c-4.143 0-7.5 3.358-7.5 7.5v80.813c0 4.142 3.357 7.5 7.5 7.5zm7.5-80.813h33.487v65.813h-33.487z"/><path d="m272.163 323.252c-4.143 0-7.5 3.358-7.5 7.5v141.423c0 4.142 3.357 7.5 7.5 7.5h48.487c4.143 0 7.5-3.358 7.5-7.5v-141.423c0-4.142-3.357-7.5-7.5-7.5zm40.987 141.423h-33.487v-126.423h33.487z"/><path d="m401.46 324.3c4.143 0 7.5-3.358 7.5-7.5v-26.45c0-4.142-3.357-7.5-7.5-7.5h-48.48c-4.143 0-7.5 3.358-7.5 7.5v181.82c0 4.142 3.357 7.5 7.5 7.5h48.479c4.143 0 7.5-3.358 7.5-7.5v-120.37c0-4.142-3.357-7.5-7.5-7.5s-7.5 3.358-7.5 7.5v112.87h-33.479v-166.82h33.479v18.95c.001 4.142 3.358 7.5 7.501 7.5z"/><path d="m336.813 32.325h-161.626c-4.143 0-7.5 3.358-7.5 7.5v32.325c0 4.142 3.357 7.5 7.5 7.5h161.627c4.143 0 7.5-3.358 7.5-7.5v-32.325c-.001-4.142-3.358-7.5-7.501-7.5zm-7.5 32.325h-146.626v-17.325h146.627v17.325z"/><path d="m405.504 97.986h-149.504c-4.143 0-7.5 3.358-7.5 7.5s3.357 7.5 7.5 7.5h149.504c4.143 0 7.5-3.358 7.5-7.5s-3.358-7.5-7.5-7.5z"/><path d="m405.504 131.658h-149.504c-4.143 0-7.5 3.358-7.5 7.5s3.357 7.5 7.5 7.5h149.504c4.143 0 7.5-3.358 7.5-7.5s-3.358-7.5-7.5-7.5z"/><path d="m413.004 172.83c0-4.142-3.357-7.5-7.5-7.5h-149.504c-4.143 0-7.5 3.358-7.5 7.5s3.357 7.5 7.5 7.5h149.504c4.142 0 7.5-3.358 7.5-7.5z"/><path d="m352.395 206.502c0-4.142-3.357-7.5-7.5-7.5h-88.895c-4.143 0-7.5 3.358-7.5 7.5s3.357 7.5 7.5 7.5h88.895c4.142 0 7.5-3.358 7.5-7.5z"/><path d="m256 248.5h-136.372c-4.143 0-7.5 3.358-7.5 7.5s3.357 7.5 7.5 7.5h136.372c4.143 0 7.5-3.358 7.5-7.5s-3.357-7.5-7.5-7.5z"/><path d="m263.5 289.672c0-4.142-3.357-7.5-7.5-7.5h-136.372c-4.143 0-7.5 3.358-7.5 7.5s3.357 7.5 7.5 7.5h136.372c4.143 0 7.5-3.358 7.5-7.5z"/><path d="m202.891 323.344c0-4.142-3.357-7.5-7.5-7.5h-75.763c-4.143 0-7.5 3.358-7.5 7.5s3.357 7.5 7.5 7.5h75.763c4.142 0 7.5-3.358 7.5-7.5z"/></g></g></svg>