<svg height="504pt" viewBox="0 0 504 504.93945" width="504pt" xmlns="http://www.w3.org/2000/svg"><path d="m135.84375 93.660156h-25.179688v-50.359375c0-4.636719-3.757812-8.394531-8.394531-8.394531s-8.394531 3.757812-8.394531 8.394531v58.753907c0 4.636718 3.757812 8.394531 8.394531 8.394531h33.574219c4.632812 0 8.390625-3.757813 8.390625-8.394531 0-4.636719-3.757813-8.394532-8.390625-8.394532zm0 0"/><path d="m479.972656 76.875h-4.28125c-.886718-2.53125-1.917968-5.011719-3.085937-7.429688l3.003906-2.988281c7.207031-7.1875 9.375-18.011719 5.496094-27.421875-3.878907-9.414062-13.042969-15.5625-23.222657-15.585937h-.042968c-6.691406-.007813-13.109375 2.667969-17.808594 7.429687l-2.988281 3.003906c-2.417969-1.167968-4.898438-2.199218-7.429688-3.089843v-4.28125c0-13.90625-11.273437-25.179688-25.179687-25.179688s-25.179688 11.273438-25.179688 25.179688v4.28125c-2.535156.890625-5.011718 1.921875-7.429687 3.089843l-2.988281-3.003906c-4.703126-4.761718-11.117188-7.4375-17.8125-7.429687h-.039063c-10.179687.023437-19.347656 6.171875-23.226563 15.585937-3.878906 9.410156-1.710937 20.234375 5.5 27.421875l3.003907 2.988281c-1.167969 2.417969-2.199219 4.898438-3.089844 7.429688h-4.28125c-13.90625 0-25.179687 11.273438-25.179687 25.179688s11.273437 25.179687 25.179687 25.179687h4.296875c.890625 2.53125 1.921875 5.011719 3.089844 7.429687l-3.003906 2.988282c-7.621094 7.492187-9.597657 19.015625-4.910157 28.621094l-32.574219 32.558593c-11.535156-7.835937-25.03125-12.28125-38.964843-12.84375h-7.796875c-13.570313.585938-26.726563 4.878907-38.03125 12.414063l-31.648438-31.644532c35.050782-41.546874 31.097656-103.347656-8.964844-140.089843-40.0625-36.746094-101.972656-35.351563-140.34375 3.152343-38.371093 38.507813-39.542968 100.421876-2.660156 140.355469 36.882813 39.933594 98.699219 43.667969 140.125 8.46875l31.691406 31.683594c-4.171874 6.371094-6.535156 13.761719-6.832031 21.371094-.089843 1.898437-.132812 3.558593-.199219 5.296875-3.714843-.921875-7.605468-.898438-11.308593.066406-11.707031 3.082031-13 18.332031-10.179688 32.089844 4.277344 11.453125 13.484375 20.367187 25.070313 24.273437-1.269532 12.859375 4.246094 25.453125 14.554687 33.246094 1.074219.898437 2.023438 1.796875 2.929688 2.695313-4.023438 11.890624-9.816407 23.109374-17.191407 33.269531-21.9375 1.722656-42.644531 10.820312-58.753906 25.808593-13.027344 15.503907-19.558594 35.4375-18.230468 55.640626 0 59.175781 120.546874 60.851562 134.296874 60.851562 13.746094 0 134.292969-1.675781 134.292969-60.851562 1.316407-20.191407-5.214843-40.113282-18.230469-55.605469-16.109374-14.988281-36.816406-24.082031-58.753906-25.808594-7.480468-10.25-13.316406-21.601563-17.296875-33.652344.796875-.769531 1.601563-1.542969 2.515625-2.316406 10.441406-7.90625 15.964844-20.710937 14.546875-33.730469 11.753907-3.757812 21.167969-12.644531 25.59375-24.164062 2.953125-13.363282 1.753907-28.722656-10.578125-31.804688-3.753906-.859375-7.65625-.859375-11.414062 0-.058594-1.730468-.101563-3.355468-.203125-5.269531-.292969-7.351563-2.519531-14.496094-6.453125-20.714844l32.851562-32.855469c3.359375 1.636719 7.042969 2.496094 10.777344 2.519532h.042969c6.691406.011718 13.109375-2.664063 17.808593-7.429688l2.988282-3.003906c2.414062 1.15625 4.886718 2.179688 7.414062 3.066406v4.277344c0 13.90625 11.273438 25.183594 25.179688 25.183594s25.179687-11.277344 25.179687-25.183594v-4.277344c2.53125-.890625 5.011719-1.921875 7.429688-3.089844l2.988281 3.003907c4.632812 4.890625 11.117188 7.585937 17.851562 7.429687 10.179688-.023437 19.34375-6.175781 23.222657-15.585937 3.878906-9.410157 1.710937-20.234375-5.496094-27.421875l-3.003906-2.988282c1.164062-2.417968 2.195312-4.898437 3.085937-7.429687h4.28125c13.90625 0 25.179688-11.273437 25.179688-25.179687s-11.273438-25.179688-25.179688-25.179688zm-461.636718 25.179688c0-46.355469 37.578124-83.933594 83.933593-83.933594s83.933594 37.578125 83.933594 83.933594c0 46.355468-37.578125 83.933593-83.933594 83.933593-46.335937-.050781-83.882812-37.597656-83.933593-83.933593zm168.707031 163.253906c-.855469-4-1.03125-8.113282-.519531-12.171875 2.011718.136719 3.960937.75 5.691406 1.789062.300781 6.335938 1.113281 12.636719 2.433594 18.839844-3.207032-2.132813-5.824219-5.042969-7.605469-8.457031zm94.007812 78.835937c3.421875 7.480469 7.347657 14.722657 11.75 21.671875-12.824219 3.882813-26.070312 6.207032-39.449219 6.925782-13.351562-.730469-26.570312-3.054688-39.367187-6.933594 4.316406-6.835938 8.175781-13.949219 11.550781-21.292969 4.847656 6.101563 12.285156 9.5625 20.078125 9.34375h14.957031c7.964844.214844 15.554688-3.394531 20.410157-9.714844zm-27.699219 88.996094c-17.308593-13.316406-31.222656-30.539063-40.609374-50.257813 13.226562 3.8125 26.859374 6.042969 40.609374 6.648438 13.746094-.601562 27.371094-2.835938 40.589844-6.648438-9.375 19.71875-23.285156 36.941407-40.589844 50.257813zm117.507813 10.914063c0 35.957031-87.023437 44.097656-117.507813 44.097656-30.484374 0-117.507812-8.097656-117.507812-44.066406-1.21875-15.910157 3.675781-31.6875 13.6875-44.113282 12.382812-11.179687 27.925781-18.238281 44.484375-20.214844 3.492187 13.273438 15.109375 39.710938 54.113281 70.882813.21875.128906.441406.246094.671875.347656.472657.308594.976563.566407 1.503907.769531.476562.207032.976562.363282 1.484374.472657.53125.089843 1.066407.132812 1.605469.125.519531.007812 1.039063-.035157 1.550781-.125.523438-.109375 1.035157-.269531 1.527344-.480469.519532-.203125 1.011719-.457031 1.476563-.761719.234375-.101562.457031-.214843.671875-.347656 38.964844-31.171875 50.621094-57.609375 54.113281-70.882813 16.5625 1.976563 32.105469 9.039063 44.484375 20.214844 9.992188 12.433594 14.867188 28.210938 13.640625 44.113282zm-85.796875-130.191407c-5.164062 4.464844-9.738281 9.566407-13.617188 15.183594-4.757812 6.488281-6.066406 8.023437-10.910156 8.023437h-14.921875c-4.800781 0-6.113281-1.535156-10.914062-8.023437-3.875-5.621094-8.453125-10.722656-13.621094-15.183594-7.113281-5.261719-10.433594-14.242187-8.453125-22.863281.109375-2.191406.226562-4.414062.226562-6.714844-.070312-4.457031-.632812-8.890625-1.679687-13.21875-2.582031-12.664062-3.292969-25.636718-2.105469-38.503906 1.445313-27.824219 38.964844-29.746094 40.214844-29.8125h7.160156c.382813 0 39.078125 1.832031 40.53125 29.820312 1.199219 12.867188.492188 25.84375-2.109375 38.503907-1.039062 4.332031-1.601562 8.765625-1.675781 13.21875 0 2.273437.109375 4.507812.214844 6.714843 2.015625 8.597657-1.257813 17.574219-8.339844 22.855469zm34.738281-49.394531c-1.828125 3.691406-4.671875 6.789062-8.199219 8.921875 1.3125-6.242187 2.109376-12.582031 2.390626-18.953125 1.910156-.964844 4.042968-1.414062 6.179687-1.300781.527344 3.769531.402344 7.601562-.371094 11.332031zm168.566407-162.414062c0 4.636718-3.757813 8.394531-8.394532 8.394531h-7.410156c-5.519531.007812-10.382812 3.632812-11.96875 8.921875-1.0625 3.523437-2.46875 6.9375-4.195312 10.1875-2.632813 4.875-1.746094 10.898437 2.179687 14.808594l5.222656 5.183593c2.386719 2.394531 3.101563 5.988281 1.820313 9.113281-1.285156 3.128907-4.316406 5.179688-7.695313 5.207032-2.230469.003906-4.371093-.886719-5.9375-2.476563l-5.183593-5.21875c-3.914063-3.925781-9.941407-4.808593-14.816407-2.175781-3.25 1.726562-6.664062 3.132812-10.191406 4.199219-5.316406 1.570312-8.96875 6.453125-8.96875 12v7.394531c0 4.636719-3.761719 8.394531-8.394531 8.394531-4.636719 0-8.394532-3.757812-8.394532-8.394531v-7.410156c-.007812-5.519532-3.628906-10.378906-8.914062-11.96875-3.53125-1.074219-6.945312-2.496094-10.199219-4.238282-1.84375-.976562-3.894531-1.492187-5.984375-1.496093-3.3125 0-6.488281 1.324219-8.820312 3.679687l-5.1875 5.21875c-1.566406 1.585938-3.703125 2.480469-5.933594 2.476563-4.636719 0-8.394531-3.757813-8.394531-8.394531.019531-2.230469.925781-4.363282 2.519531-5.925782l5.21875-5.1875c3.929688-3.910156 4.816406-9.941406 2.175781-14.8125-1.726562-3.253906-3.132812-6.664062-4.195312-10.191406-1.605469-5.300781-6.5-8.917969-12.039063-8.894531h-7.394531c-4.632813 0-8.390625-3.757813-8.390625-8.394531 0-4.636719 3.757812-8.394532 8.390625-8.394532h7.414063c5.515624-.007812 10.378906-3.628906 11.96875-8.914062 1.0625-3.527344 2.464843-6.941406 4.195312-10.195313 2.632812-4.875 1.742188-10.902343-2.183594-14.808593l-5.21875-5.1875c-2.386718-2.394532-3.105468-5.984376-1.820312-9.109376 1.28125-3.128906 4.316406-5.179687 7.695312-5.207031 2.230469-.003906 4.367188.886719 5.933594 2.472657l5.1875 5.222656c3.914062 3.921875 9.9375 4.804687 14.816406 2.171875 3.25-1.726563 6.664063-3.132813 10.1875-4.195313 5.320313-1.570312 8.96875-6.457031 8.972656-12.003906v-7.394531c0-4.632813 3.757813-8.390625 8.394532-8.390625 4.632812 0 8.394531 3.757812 8.394531 8.390625v7.414062c.007813 5.519531 3.632813 10.378907 8.921875 11.96875 3.523438 1.0625 6.9375 2.46875 10.1875 4.195313 4.875 2.636718 10.902344 1.75 14.804688-2.183594l5.1875-5.21875c1.566406-1.585938 3.707031-2.480469 5.9375-2.476562 4.632812 0 8.390624 3.757812 8.390624 8.394531-.015624 2.230469-.921874 4.363281-2.515624 5.925781l-5.222657 5.1875c-3.929687 3.910156-4.8125 9.941406-2.171875 14.8125 1.726563 3.253906 3.132813 6.664062 4.195313 10.191406 1.589843 5.316406 6.488281 8.953125 12.035156 8.9375h7.394531c4.636719 0 8.394532 3.757813 8.394532 8.394532zm0 0"/><path d="m404.433594 60.085938c-23.179688 0-41.96875 18.789062-41.96875 41.96875 0 23.175781 18.789062 41.964843 41.96875 41.964843 23.175781 0 41.964844-18.789062 41.964844-41.964843-.027344-23.167969-18.800782-41.941407-41.964844-41.96875zm0 67.148437c-13.90625 0-25.179688-11.273437-25.179688-25.179687s11.273438-25.179688 25.179688-25.179688 25.179687 11.273438 25.179687 25.179688c0 6.679687-2.652343 13.082031-7.375 17.804687-4.722656 4.722656-11.128906 7.375-17.804687 7.375zm0 0"/></svg>