<?xml version="1.0" encoding="iso-8859-1"?>
<!-- Generator: Adobe Illustrator 19.0.0, SVG Export Plug-In . SVG Version: 6.00 Build 0)  -->
<svg fill="#ec1946" version="1.1" id="Capa_1" xmlns="http://www.w3.org/2000/svg" xmlns:xlink="http://www.w3.org/1999/xlink" x="0px" y="0px"
	 viewBox="0 0 480 480" style="enable-background:new 0 0 480 480;" xml:space="preserve">
<g>
	<g>
		<path d="M424,216c-13.232,0-24,10.768-24,24s10.768,24,24,24s24-10.768,24-24S437.232,216,424,216z M424,248c-4.408,0-8-3.592-8-8
			c0-4.408,3.592-8,8-8c4.408,0,8,3.592,8,8S428.408,248,424,248z"/>
	</g>
</g>
<g>
	<g>
		<path d="M312,184c4.416,0,8-3.584,8-8v-16h48c2.672,0,5.168-1.336,6.656-3.56L388.28,136h45.192c3.312,9.288,12.112,16,22.528,16
			c13.232,0,24-10.768,24-24s-10.768-24-24-24c-10.416,0-19.216,6.712-22.528,16H384c-2.672,0-5.168,1.336-6.656,3.56L363.72,144
			H320v-32c0-4.416-3.584-8-8-8h-32V88h32c4.416,0,8-3.584,8-8V40h43.72l13.624,20.44C378.832,62.664,381.328,64,384,64h49.472
			c3.312,9.288,12.112,16,22.528,16c13.232,0,24-10.768,24-24s-10.768-24-24-24c-10.416,0-19.216,6.712-22.528,16H388.28
			l-13.624-20.44C373.168,25.336,370.672,24,368,24h-48v-8c0-4.416-3.584-8-8-8H8c-4.416,0-8,3.584-8,8v64c0,4.416,3.584,8,8,8h32
			v16H8c-4.416,0-8,3.584-8,8v64c0,4.416,3.584,8,8,8h37.752l-4,16H8c-4.416,0-8,3.584-8,8v64c0,4.416,3.584,8,8,8h32v16H8
			c-4.416,0-8,3.584-8,8v64c0,4.416,3.584,8,8,8h32v16H8c-4.416,0-8,3.584-8,8v64c0,4.416,3.584,8,8,8h304c4.416,0,8-3.584,8-8v-32
			h59.72l13.624,20.44c1.488,2.224,3.984,3.56,6.656,3.56h33.472c3.312,9.288,12.112,16,22.528,16c13.232,0,24-10.768,24-24
			s-10.768-24-24-24c-10.416,0-19.216,6.712-22.528,16H404.28l-13.624-20.44c-1.488-2.224-3.984-3.56-6.656-3.56h-64v-16
			c0-4.416-3.584-8-8-8h-32v-16h32c4.416,0,8-3.584,8-8v-8h64c2.672,0,5.168-1.336,6.656-3.56L404.28,336h29.192
			c3.312,9.288,12.112,16,22.528,16c13.232,0,24-10.768,24-24s-10.768-24-24-24c-10.416,0-19.216,6.712-22.528,16H400
			c-2.672,0-5.168,1.336-6.656,3.56L379.72,344H320v-40c0-4.416-3.584-8-8-8h-48v-32.44l14.168-6.072l12.168,12.168
			c2.696,2.696,6.936,3.12,10.096,1l18.544-12.36l19.36,19.36C339.84,279.16,341.88,280,344,280h22.08
			c12.112,15.104,30.472,24,49.92,24c35.288,0,64-28.712,64-64c0-35.288-28.712-64-64-64c-19.448,0-37.808,8.896-49.92,24H264v-16
			H312z M456,120c4.408,0,8,3.592,8,8s-3.592,8-8,8c-4.408,0-8-3.592-8-8S451.592,120,456,120z M456,48c4.408,0,8,3.592,8,8
			s-3.592,8-8,8c-4.408,0-8-3.592-8-8S451.592,48,456,48z M456,440c4.408,0,8,3.592,8,8c0,4.408-3.592,8-8,8c-4.408,0-8-3.592-8-8
			C448,443.592,451.592,440,456,440z M456,320c4.408,0,8,3.592,8,8c0,4.408-3.592,8-8,8c-4.408,0-8-3.592-8-8
			C448,323.592,451.592,320,456,320z M16,72V24h288v48H16z M264,88v16H56V88H264z M16,264v-48h168v16H48v16h136v16H16z M58.248,200
			l4-16H184v16H58.248z M184,280v16H56v-16H184z M304,408v48H16v-48H304z M56,392v-16h208v16H56z M304,312v48H16v-48h168v16H48v16
			h144h64c4.416,0,8-3.584,8-8v-24H304z M219.6,278.68c2.24,1.48,5.072,1.736,7.552,0.672L248,270.416V304v24h-48v-24v-32v-64v-32
			v-24h48v24v24h-24c-4.416,0-8,3.584-8,8v64C216,274.688,217.352,277.2,219.6,278.68z M370.08,216c2.616,0,5.064-1.28,6.56-3.416
			C385.64,199.696,400.352,192,416,192c26.472,0,48,21.528,48,48s-21.528,48-48,48c-15.648,0-30.36-7.696-39.36-20.584
			c-1.496-2.136-3.952-3.416-6.56-3.416h-22.768l-21.656-21.656c-2.696-2.696-6.92-3.112-10.096-1l-18.544,12.36l-11.36-11.36
			c-2.312-2.312-5.808-2.992-8.808-1.696L232,259.864V216h24H370.08z M256,136h-64H48v16h136v16H16v-48h288v48h-40v-24
			C264,139.584,260.416,136,256,136z"/>
	</g>
</g>
<g>
	<g>
		<rect x="48" y="40" width="160" height="16"/>
	</g>
</g>
<g>
	<g>
		<rect x="240" y="40" width="32" height="16"/>
	</g>
</g>
<g>
	<g>
		<rect x="48" y="424" width="160" height="16"/>
	</g>
</g>
<g>
	<g>
		<rect x="240" y="424" width="32" height="16"/>
	</g>
</g>
<g>
</g>
<g>
</g>
<g>
</g>
<g>
</g>
<g>
</g>
<g>
</g>
<g>
</g>
<g>
</g>
<g>
</g>
<g>
</g>
<g>
</g>
<g>
</g>
<g>
</g>
<g>
</g>
<g>
</g>
</svg>
