<?xml version="1.0" encoding="UTF-8"?>
<svg fill="#1f1f24" xmlns="http://www.w3.org/2000/svg" viewBox="0 0 64 64" width="512" height="512"><g id="Outline"><circle cx="46" cy="34" r="1"/><circle cx="50" cy="34" r="1"/><path d="M61,56H57.816A2.966,2.966,0,0,0,58,55V47a4.942,4.942,0,0,0-.614-2.351A4.92,4.92,0,0,0,59,41V33a11,11,0,0,0-22,0v3a1,1,0,0,0,2,0V33a9,9,0,0,1,18,0v8a2.94,2.94,0,0,1-.9,2.112A4.95,4.95,0,0,0,53,42H52v-.264A6.993,6.993,0,0,0,55,36V35a1,1,0,0,0-2,0v1a5,5,0,0,1-10,0V31.9a5.152,5.152,0,0,0,3.341-2.269A11.157,11.157,0,0,0,53.242,32H54a1,1,0,0,0,0-2h-.758a9.18,9.18,0,0,1-6.535-2.707,1,1,0,0,0-1.655.389L45,27.838A3.16,3.16,0,0,1,42,30a1,1,0,0,0-1,1v5a6.993,6.993,0,0,0,3,5.736V42H43a4.95,4.95,0,0,0-3.1,1.112A2.94,2.94,0,0,1,39,41V40a1,1,0,0,0-2,0v1a4.92,4.92,0,0,0,1.614,3.649A4.942,4.942,0,0,0,38,47v5H35a2.981,2.981,0,0,0-2,.78,2.954,2.954,0,0,0-4,0A2.981,2.981,0,0,0,27,52H24V50h6a4,4,0,0,0,4-4V32a4,4,0,0,0-4-4H8a4,4,0,0,0-4,4V46a4,4,0,0,0,4,4h3a1,1,0,0,0,0-2H8a2,2,0,0,1-2-2V32a2,2,0,0,1,2-2H30a2,2,0,0,1,2,2V46a2,2,0,0,1-2,2H24V44a5,5,0,0,0-10,0v8H11a3,3,0,0,0-3,3v1H3a1,1,0,0,0,0,2H61a1,1,0,0,0,0-2ZM51.414,44h.109l-.994,2.484-.96-.639Zm-1.575-1.253L48,44.586l-1.839-1.839a6.81,6.81,0,0,0,3.678,0ZM44.586,44l1.845,1.845-.96.639L44.477,44Zm-2.233.075,1.718,4.3a1,1,0,0,0,1.484.461L48,47.2l2.445,1.63a1,1,0,0,0,1.484-.461l1.718-4.3A3,3,0,0,1,56,47v3H54V49a1,1,0,0,0-2,0v3H49.107a3.084,3.084,0,0,0-3.067,2.5,3.023,3.023,0,0,0,.148,1.5H44V49a1,1,0,0,0-2,0v1H40V47A3,3,0,0,1,42.353,44.075ZM16,44a3,3,0,0,1,6,0v8H16ZM10,55a1,1,0,0,1,1-1H27a1,1,0,0,1,1,1v1H10Zm20,1V55a1,1,0,0,1,2,0v1Zm5,0a1,1,0,0,1,0-2h4a1,1,0,0,0,1-1V52h2v4Zm14,0a1,1,0,0,1-.985-1.175A1.083,1.083,0,0,1,49.107,54H53a1,1,0,0,0,1-1V52h2v3a1,1,0,0,1-1,1Z"/><path d="M61,60H3a1,1,0,0,0,0,2H61a1,1,0,0,0,0-2Z"/><path d="M24,36a1,1,0,0,0,0-2H14a1,1,0,0,0,0,2Z"/><path d="M21.974,15.9l3,5.2a1,1,0,0,0,1.366.366l1.684-.972a8.966,8.966,0,0,0,.976.566V23a1,1,0,0,0,1,1h6a1,1,0,0,0,1-1V21.058a9.076,9.076,0,0,0,.977-.566l1.683.972a1,1,0,0,0,1.366-.366l3-5.2a1,1,0,0,0-.366-1.366l-1.681-.971c.014-.2.021-.382.021-.565s-.007-.369-.021-.565l1.681-.971a1,1,0,0,0,.366-1.366l-3-5.2a1,1,0,0,0-1.732,1l2.5,4.329-1.379.8a1,1,0,0,0-.49,1A7.156,7.156,0,0,1,40,13a7.156,7.156,0,0,1-.075.97,1,1,0,0,0,.49,1l1.379.8-2,3.462-1.378-.794a1,1,0,0,0-1.115.078,7.024,7.024,0,0,1-1.677.971,1,1,0,0,0-.624.927V22H31V20.413a1,1,0,0,0-.624-.927,7.044,7.044,0,0,1-1.677-.971,1,1,0,0,0-1.115-.078l-1.378.794-2-3.462,1.379-.8a1,1,0,0,0,.491-1,6.228,6.228,0,0,1,0-1.94,1,1,0,0,0-.491-1l-1.379-.8,2-3.462,1.378.794A1,1,0,0,0,28.7,7.485a7.044,7.044,0,0,1,1.677-.971A1,1,0,0,0,31,5.587V4h4V5.587a1,1,0,1,0,2,0V3a1,1,0,0,0-1-1H30a1,1,0,0,0-1,1V4.942a8.966,8.966,0,0,0-.976.566L26.34,4.536a1,1,0,0,0-1.366.366l-3,5.2a1,1,0,0,0,.366,1.366l1.681.971c-.014.2-.021.382-.021.565s.007.369.021.565l-1.681.971A1,1,0,0,0,21.974,15.9Z"/><path d="M33,9a4,4,0,1,0,4,4A4,4,0,0,0,33,9Zm0,6a2,2,0,1,1,2-2A2,2,0,0,1,33,15Z"/><path d="M11,17a3,3,0,1,0,3-3A3,3,0,0,0,11,17Zm4,0a1,1,0,1,1-1-1A1,1,0,0,1,15,17Z"/><path d="M5.106,19.009a1,1,0,0,0,.1.759l2,3.464a1,1,0,0,0,.607.466,1.021,1.021,0,0,0,.759-.1l1.454-.84a6.962,6.962,0,0,0,.974.56V25a1,1,0,0,0,1,1h4a1,1,0,0,0,1-1V23.319a6.962,6.962,0,0,0,.974-.56l1.454.84a1.007,1.007,0,0,0,.759.1,1,1,0,0,0,.607-.466l2-3.464a1,1,0,0,0-.366-1.367l-1.452-.838c.016-.189.024-.376.024-.563a7.005,7.005,0,0,0-.121-1.275,1,1,0,1,0-1.967.361,4.791,4.791,0,0,1,0,1.828,1,1,0,0,0,.484,1.047l1.166.673-1,1.732L18.4,20.692a1,1,0,0,0-1.15.107,5,5,0,0,1-1.579.91,1,1,0,0,0-.667.942V24H13V22.651a1,1,0,0,0-.667-.942,5,5,0,0,1-1.579-.91,1,1,0,0,0-1.15-.107l-1.166.674-1-1.732L8.6,18.961a1,1,0,0,0,.484-1.047,4.791,4.791,0,0,1,0-1.828A1,1,0,0,0,8.6,15.039l-1.166-.673,1-1.732,1.166.674a.994.994,0,0,0,1.15-.107,5,5,0,0,1,1.579-.91A1,1,0,0,0,13,11.349V10h2v1.349a1,1,0,0,0,.667.942,5,5,0,0,1,1.579.91,1,1,0,0,0,1.15.107l2.032-1.174a1,1,0,0,0-1-1.733l-1.454.84a6.962,6.962,0,0,0-.974-.56V9a1,1,0,0,0-1-1H12a1,1,0,0,0-1,1v1.681a6.962,6.962,0,0,0-.974.56L8.572,10.4a1.02,1.02,0,0,0-.759-.1,1,1,0,0,0-.607.466l-2,3.464A1,1,0,0,0,5.572,15.6l1.452.838C7.008,16.626,7,16.813,7,17s.008.374.024.563L5.572,18.4A1,1,0,0,0,5.106,19.009Z"/><path d="M59,5.5H57a1,1,0,0,0,0,2h2a1,1,0,0,1,1,1v6a1,1,0,0,1-1,1H55a1.006,1.006,0,0,0-.555.168L50,18.632V16.5a1,1,0,0,0-1-1,1,1,0,0,1-1-1v-6a1,1,0,0,1,1-1h4a1,1,0,0,0,0-2H49a3,3,0,0,0-3,3v6a3.006,3.006,0,0,0,2,2.829V20.5a1,1,0,0,0,1.555.832L55.3,17.5H59a3,3,0,0,0,3-3v-6A3,3,0,0,0,59,5.5Z"/></g></svg>
