<?xml version="1.0"?>
<svg fill="#fff" xmlns="http://www.w3.org/2000/svg" width="512" height="512" viewBox="0 0 512 512"><g><path d="M472,56H40A32.042,32.042,0,0,0,8,88V360a32.042,32.042,0,0,0,32,32H204.9l-10.67,32H168a8,8,0,0,0-8,8v16H88a8,8,0,0,0,0,16H440a8,8,0,0,0,0-16H352V432a8,8,0,0,0-8-8H317.77L307.1,392H472a32.042,32.042,0,0,0,32-32V88A32.042,32.042,0,0,0,472,56ZM336,440v8H176v-8ZM211.1,424l10.67-32h68.46l10.67,32ZM488,360a16.021,16.021,0,0,1-16,16H40a16.021,16.021,0,0,1-16-16V344H488ZM143.66,256l-3,72h-9.32l-3-72Zm-14.22-16,5.34-32h2.44l5.34,32ZM136,192c-8.67,0-16-10.99-16-24,0-8.21,8.38-20.14,15.98-28.55C142.83,147.05,152,159.2,152,168,152,181.01,144.67,192,136,192Zm87.06-16,.94,1.89V184H192v-6.11l.94-1.89Zm-22.12-16L208,145.89,215.06,160ZM224,200V327a8.258,8.258,0,0,0,.07,1H191.93a8.258,8.258,0,0,0,.07-1V200Zm72-32h24v16h-8a8,8,0,0,0,0,16h8v16H296a8,8,0,0,0,0,16h24v16h-8a8,8,0,0,0,0,16h8v16H296a8,8,0,0,0,0,16h24v32H264V136h56v16H296a8,8,0,0,0,0,16Zm96,96v63a8.258,8.258,0,0,0,.07,1H359.93a8.258,8.258,0,0,0,.07-1V264Zm-32-16v-6.11l16-32,16,32V248Zm128,80H407.93a8.258,8.258,0,0,0,.07-1V240a8.081,8.081,0,0,0-.84-3.58l-24-48a8.009,8.009,0,0,0-14.32,0l-24,48A8.081,8.081,0,0,0,344,240v87a8.258,8.258,0,0,0,.07,1H336V128a8,8,0,0,0-8-8H256a8,8,0,0,0-8,8V328h-8.07a8.258,8.258,0,0,0,.07-1V176a8.081,8.081,0,0,0-.84-3.58l-24-48a8.009,8.009,0,0,0-14.32,0l-24,48A8.081,8.081,0,0,0,176,176V327a8.258,8.258,0,0,0,.07,1h-19.4l3.32-79.67c.01-.18,0-.36,0-.55v-.24a8.013,8.013,0,0,0-.1-.84v-.02l-7.4-44.41C161.78,195.26,168,182.52,168,168c0-20.56-23.83-43.33-26.55-45.86a8.017,8.017,0,0,0-10.9,0C127.83,124.67,104,147.44,104,168c0,14.52,6.22,27.26,15.51,34.27l-7.4,44.41v.02a8.013,8.013,0,0,0-.1.84v.24c0,.19-.01.37,0,.55L115.33,328H24V88A16.021,16.021,0,0,1,40,72H472a16.021,16.021,0,0,1,16,16Z"/><path d="M96,352H48a8,8,0,0,0,0,16H96a8,8,0,0,0,0-16Z"/><path d="M128,352h-8a8,8,0,0,0,0,16h8a8,8,0,0,0,0-16Z"/><path d="M208,208a8,8,0,0,0-8,8v88a8,8,0,0,0,16,0V216A8,8,0,0,0,208,208Z"/><path d="M376,272a8,8,0,0,0-8,8v24a8,8,0,0,0,16,0V280A8,8,0,0,0,376,272Z"/><path d="M48,104h64a8,8,0,0,0,0-16H48a8,8,0,0,0,0,16Z"/><path d="M48,128H64a8,8,0,0,0,0-16H48a8,8,0,0,0,0,16Z"/><path d="M432,312h32a8,8,0,0,0,0-16H432a8,8,0,0,0,0,16Z"/><path d="M456,288h8a8,8,0,0,0,0-16h-8a8,8,0,0,0,0,16Z"/></g></svg>
