<svg fill="#1f1f24" id="Capa_1" enable-background="new 0 0 512 512" height="512" viewBox="0 0 512 512" width="512" xmlns="http://www.w3.org/2000/svg"><g><path d="m403.802 334.499-30.049-8.823-65.376-42.701v-9.784c18.928-14.277 31.926-36.1 34.342-61.115 9.493-1.528 16.766-9.777 16.766-19.693v-26.905c0-.104-.011-.206-.016-.31v-34.082c3.782-2.708 6.182-7.119 6.182-12.067v-31.19l45.117-7.685c7.415-1.263 12.747-7.152 13.271-14.655.522-7.503-3.941-14.075-11.108-16.354l-152.097-48.378c-3.174-1.01-6.526-1.009-9.698-.001l-152.099 48.379c-7.167 2.279-11.631 8.851-11.108 16.353.332 4.767 2.61 8.877 6.126 11.569v40.787h-.372c-8.565 0-15.533 6.968-15.533 15.533v20.246l-10.027 58.852c-1.733 10.179 6.107 19.496 16.457 19.496h33.949c10.327 0 18.194-9.295 16.457-19.497l-10.027-58.851v-20.246c0-8.565-6.968-15.533-15.533-15.533h-.371v-36.363l37.294 6.352v31.186c0 4.927 2.389 9.331 6.153 12.043l.014 34.419v26.902c0 9.917 7.273 18.165 16.766 19.693 2.415 25.001 15.399 46.814 34.309 61.092v9.83l-65.362 42.693-30.025 8.813c-32.129 9.43-54.815 38.927-54.815 73.215v22.352c0 4.142 3.357 7.5 7.5 7.5s7.5-3.357 7.5-7.5v-22.352c0-27.024 18.109-51.213 44.04-58.823l27.976-8.212 111.766 66.413c2.269 1.348 5.271 1.42 7.662 0l111.773-66.417 27.973 8.212c25.927 7.612 44.036 31.8 44.036 58.822v72.438c0 9.291-7.559 16.85-16.85 16.85h-33.057v-32.328c0-4.142-3.357-7.5-7.5-7.5-4.142 0-7.5 3.357-7.5 7.5v32.328h-245.448v-32.328c0-4.142-3.357-7.5-7.5-7.5s-7.5 3.357-7.5 7.5v32.328h-33.023c-9.291 0-16.85-7.559-16.85-16.85v-15.022c0-4.142-3.357-7.5-7.5-7.5s-7.5 3.357-7.5 7.5v15.021c0 17.562 14.287 31.849 31.849 31.849h341.527c17.562 0 31.849-14.287 31.849-31.849v-72.438c0-33.48-21.912-63.555-54.81-73.214zm-285.274-117.528h-33.948c-1.049 0-1.849-.937-1.671-1.978l9.07-53.236h19.15l9.07 53.235c.177 1.039-.617 1.979-1.671 1.979zm-8.569-83.594v13.381h-16.811v-13.381c0-.295.239-.534.534-.534h15.742c.296-.001.535.239.535.534zm119.218 239.794 2.985 4.588-76.569-45.497 48.601-31.745c2.204 25.86 10.728 50.745 24.983 72.654zm-.052-32.375c17.653 2.508 36.087 2.51 53.75 0-3.413 8.398-7.619 16.502-12.624 24.196l-14.251 21.904-14.251-21.904c-5.005-7.694-9.211-15.798-12.624-24.196zm53.698 32.375c14.255-21.909 22.779-46.794 24.982-72.654l48.601 31.744-76.568 45.498zm43.871-239.292h17.776v24.098h-8.823c-4.937 0-8.954-4.016-8.954-8.953v-15.145zm-223.111-70.45 152.101-48.38c.195-.062.405-.063.603.001l152.1 48.379c.314.1.745.236.69 1.017-.055.78-.5.855-.826.911l-50.288 8.565-18.88-2.335c-4.108-.509-7.854 2.413-8.363 6.523-.508 4.111 2.413 7.855 6.523 8.363l13.41 1.659v30.748l-189.305-.007v-30.742l77.607-9.603c11.304-1.397 22.764-1.397 34.06 0l29.373 3.633c4.11.509 7.855-2.412 8.364-6.522.509-4.111-2.412-7.855-6.522-8.364l-29.373-3.633c-12.517-1.549-25.217-1.549-37.743 0l-83.094 10.282-50.303-8.567c-.326-.056-.771-.131-.826-.911-.054-.781.377-.918.692-1.017zm63.928 94.548-.01-24.098h17.805v15.146c0 4.936-4.016 8.953-8.954 8.953h-8.841zm16.507 50.244c-.386-6.107-5.462-10.891-11.555-10.891-2.729 0-4.949-2.22-4.949-4.948v-19.405h8.838c13.207 0 23.953-10.745 23.953-23.952v-15.146h111.389v15.146c0 13.207 10.746 23.952 23.953 23.952h8.838v19.405c0 2.728-2.22 4.948-4.949 4.948-6.093 0-11.169 4.784-11.555 10.892-2.389 37.869-34.007 67.534-71.982 67.534s-69.592-29.665-71.981-67.535zm71.982 82.534c13.339 0 26.017-3.05 37.378-8.473v4.753c0 12.823-1.73 25.472-5.061 37.672-20.382 3.886-43.425 4.043-64.634 0-3.331-12.199-5.061-24.848-5.061-37.672 0-.159-.022-.314-.032-.471-.002-.031.001-.062-.001-.093v-4.204c11.369 5.432 24.059 8.488 37.411 8.488z"/></g></svg>
