<svg fill="#1f1f24" id="Capa_1" enable-background="new 0 0 512 512" height="512" viewBox="0 0 512 512" width="512" xmlns="http://www.w3.org/2000/svg"><g><path d="m482.495 75.962h-21.225v-20.094c0-4.142-3.358-7.5-7.5-7.5h-45.22c-4.142 0-7.5 3.358-7.5 7.5v20.094h-247.78v-20.094c0-4.142-3.358-7.5-7.5-7.5h-45.22c-4.142 0-7.5 3.358-7.5 7.5v20.094h-17.522c-18.313 0-33.21 14.898-33.21 33.21v182.491c0 4.142 3.358 7.5 7.5 7.5s7.5-3.358 7.5-7.5v-182.49c0-10.041 8.169-18.21 18.21-18.21h406.967c7.998 0 14.505 6.507 14.505 14.505v248.031c0 7.998-6.507 14.505-14.505 14.505h-15.984v-28.386c0-4.142-3.358-7.5-7.5-7.5h-80.587c-4.142 0-7.5 3.358-7.5 7.5v28.386h-120.208l28.378-7.76c14.698-4.01 27.579-12.356 37.252-24.137l48.2-58.72c.96-1.166 1.573-2.677 1.688-4.184l4.25-55.984c.42-5.534-2.938-10.968-8.041-13.104 2.272-1.289 3.808-3.725 3.808-6.524 0-4.142-3.358-7.5-7.5-7.5h-32.865c-4.142 0-7.5 3.358-7.5 7.5s3.358 7.5 7.5 7.5h24.531c-.821.52-1.598 1.135-2.311 1.849l-27.523 27.523c-5.316 5.314-9.692 11.988-14.403 17.846-2.596 3.228-2.084 7.949 1.144 10.545s7.949 2.084 10.545-1.144l8.628-10.727 22.143 22.143-43.886 53.465c-7.688 9.363-17.926 15.997-29.612 19.185l-118.432 34.08c-9.172 2.941-4.602 17.225 4.579 14.284l26.05-8.352v62.844h-10.42c-4.142 0-7.5 3.358-7.5 7.5s3.358 7.5 7.5 7.5h45.848c4.142 0 7.5-3.358 7.5-7.5s-3.358-7.5-7.5-7.5h-20.427v-65.629h280.155c16.269 0 29.505-13.236 29.505-29.505v-248.031c0-16.269-13.236-29.505-29.505-29.505zm-66.445-12.594h30.22v12.59h-30.22zm-308 0h30.22v12.59h-30.22zm247.096 157.744-2.632 34.673-16.02-16.02zm30.778 146.891v-20.886h65.587v20.886z"/><path d="m141.106 448.632h-96.296v-39.824c0-25.298 5.834-50.54 16.965-73.26 6.088-12.423 18.957-20.45 32.785-20.45h126.38c26.415 0 52.11-9.335 72.354-26.286 3.176-2.659 3.595-7.39.936-10.565-2.66-3.177-7.39-3.595-10.565-.936-17.548 14.694-39.824 22.787-62.724 22.787h-54.312c8.414-8.758 13.602-20.636 13.602-33.71v-27.541c19.28-1.272 34.58-17.353 34.58-36.949 0-20.429-16.616-37.05-37.04-37.05-12.486-.293-24.372 2.613-33.123 12.134-4.277 4.636-10.345 7.295-16.647 7.295h-20.61c-17.215 0-31.22 14.01-31.22 31.23v56.21c0 6.382 1.534 12.645 5.39 17.826 1.739 2.336 3.879 4.369 6.298 5.991 2.609 1.75 6.414 2.384 8.509 4.564-20.079-.337-39.149 10.662-48.062 28.85-12.135 24.769-18.495 52.279-18.495 79.86v39.824h-22.311c-4.142 0-7.5 3.358-7.5 7.5s3.358 7.5 7.5 7.5h133.606c4.142 0 7.5-3.358 7.5-7.5s-3.358-7.5-7.5-7.5zm-11.716-148.6c-4.185-.257-8.252-1.304-12.003-3.037 1.74-.893 3.427-1.994 4.936-3.239 6.234-5.144 9.668-12.758 9.668-21.438v-33.38h33.24v27.45c0 18.588-15.127 33.71-33.72 33.71-.796 0-1.467-.02-2.121-.066zm-38.22-28.314v-56.21c0-8.949 7.276-16.23 16.22-16.23h20.61c10.479 0 20.565-4.419 27.682-12.135 5.893-6.412 13.891-7.599 22.088-7.295 12.153 0 22.04 9.892 22.04 22.05 0 12.153-9.887 22.04-22.04 22.04h-53.28c-4.142 0-7.5 3.358-7.5 7.5v40.88c0 8.749-7.72 14.242-16.086 12.646-6.7-1.278-9.734-6.732-9.734-13.246z"/><path d="m256.736 162.913h40.846c4.142 0 7.5-3.358 7.5-7.5v-27.598c0-4.142-3.358-7.5-7.5-7.5h-40.846c-4.142 0-7.5 3.358-7.5 7.5v27.598c0 4.142 3.358 7.5 7.5 7.5zm7.5-27.598h25.846v12.598h-25.846z"/><path d="m249.236 211.389c0 4.142 3.358 7.5 7.5 7.5h40.846c4.142 0 7.5-3.358 7.5-7.5v-27.599c0-4.142-3.358-7.5-7.5-7.5h-40.846c-4.142 0-7.5 3.358-7.5 7.5zm15-20.099h25.846v12.599h-25.846z"/><path d="m325.886 149.114h133.125c4.142 0 7.5-3.358 7.5-7.5s-3.358-7.5-7.5-7.5h-133.125c-4.142 0-7.5 3.358-7.5 7.5s3.358 7.5 7.5 7.5z"/></g></svg>
